<svg width="720" height="854" viewBox="0 0 720 854" fill="none" xmlns="http://www.w3.org/2000/svg">
<rect width="1522.5" height="870" transform="translate(-32 -16)" fill="#212121"/>
<rect width="217.5" height="217.5" transform="matrix(0 -1 -1 0 185.5 201.5)" fill="#8B9BC1"/>
<path d="M-32.0001 201.5V-16.0001L185.5 201.5H-32.0001Z" fill="#212121"/>
<rect width="217.5" height="217.5" transform="matrix(0 1 1 0 185.5 -15.9998)" fill="#8B9BC1"/>
<path d="M185.5 -15.9999C185.5 12.5626 191.126 40.8455 202.056 67.2338C212.986 93.6221 229.007 117.599 249.204 137.796C269.401 157.993 293.378 174.014 319.766 184.944C346.155 195.874 374.437 201.5 403 201.5L403 -15.9999H185.5Z" fill="#D6F2FF"/>
<rect x="620.5" y="-15.9998" width="217.5" height="217.5" transform="rotate(90 620.5 -15.9998)" fill="#8B9BC1"/>
<path d="M620.5 -15.9999C620.5 12.5626 614.874 40.8455 603.944 67.2338C593.014 93.6221 576.993 117.599 556.796 137.796C536.599 157.993 512.622 174.014 486.234 184.944C459.845 195.874 431.563 201.5 403 201.5L403 -15.9999H620.5Z" fill="#36467F"/>
<rect x="620.5" y="-15.9995" width="217.5" height="217.5" fill="#8B9BC1"/>
<path d="M729.25 -15.9998C729.25 44.0612 680.561 92.7502 620.5 92.7502V-15.9998H729.25Z" fill="#D6F2FF"/>
<path d="M729.25 201.5C729.25 141.439 680.561 92.7502 620.5 92.7502V201.5H729.25Z" fill="#36467F"/>
<rect width="217.5" height="217.5" transform="matrix(-1 0 0 1 185.5 201.501)" fill="#8B9BC1"/>
<path d="M185.5 310.251C185.5 370.312 136.811 419.001 76.7499 419.001L76.7499 201.501C136.811 201.501 185.5 250.19 185.5 310.251Z" fill="#36467F"/>
<path d="M-32 310.25C-32 370.311 16.6891 419 76.7501 419L76.7501 201.5C16.6891 201.5 -32 250.189 -32 310.25Z" fill="#D6F2FF"/>
<rect width="217.5" height="217.5" transform="matrix(0 -1 -1 0 403 419)" fill="#8B9BC1"/>
<path d="M185.5 419V391.813L212.688 419H185.5Z" fill="#212121"/>
<path d="M212.687 419V391.813L239.875 419H212.687Z" fill="#212121"/>
<path d="M239.875 419V391.813L267.062 419H239.875Z" fill="#212121"/>
<path d="M267.062 419V391.813L294.25 419H267.062Z" fill="#212121"/>
<path d="M294.25 419V391.813L321.438 419H294.25Z" fill="#212121"/>
<path d="M321.437 419V391.813L348.625 419H321.437Z" fill="#212121"/>
<path d="M348.625 419V391.813L375.812 419H348.625Z" fill="#212121"/>
<path d="M375.812 419V391.813L403 419H375.812Z" fill="#212121"/>
<path d="M185.5 391.813V364.626L212.688 391.813H185.5Z" fill="#212121"/>
<path d="M212.687 391.813V364.626L239.875 391.813H212.687Z" fill="#212121"/>
<path d="M239.875 391.813V364.626L267.062 391.813H239.875Z" fill="#212121"/>
<path d="M267.062 391.813V364.626L294.25 391.813H267.062Z" fill="#212121"/>
<path d="M294.25 391.813V364.626L321.438 391.813H294.25Z" fill="#212121"/>
<path d="M321.437 391.813V364.626L348.625 391.813H321.437Z" fill="#212121"/>
<path d="M348.625 391.813V364.626L375.812 391.813H348.625Z" fill="#212121"/>
<path d="M185.5 364.626V337.439L212.688 364.626H185.5Z" fill="#212121"/>
<path d="M212.687 364.626V337.439L239.875 364.626H212.687Z" fill="#212121"/>
<path d="M239.875 364.626V337.439L267.062 364.626H239.875Z" fill="#212121"/>
<path d="M267.062 364.626V337.439L294.25 364.626H267.062Z" fill="#212121"/>
<path d="M294.25 364.626V337.439L321.438 364.626H294.25Z" fill="#212121"/>
<path d="M321.437 364.626V337.439L348.625 364.626H321.437Z" fill="#212121"/>
<path d="M185.5 337.438V310.251L212.688 337.438H185.5Z" fill="#212121"/>
<path d="M212.687 337.438V310.251L239.875 337.438H212.687Z" fill="#212121"/>
<path d="M239.875 337.438V310.251L267.062 337.438H239.875Z" fill="#212121"/>
<path d="M267.062 337.438V310.251L294.25 337.438H267.062Z" fill="#212121"/>
<path d="M294.25 337.438V310.251L321.438 337.438H294.25Z" fill="#212121"/>
<path d="M185.5 310.251V283.063L212.688 310.251H185.5Z" fill="#212121"/>
<path d="M212.687 310.251V283.063L239.875 310.251H212.687Z" fill="#212121"/>
<path d="M239.875 310.251V283.063L267.062 310.251H239.875Z" fill="#212121"/>
<path d="M267.062 310.251V283.063L294.25 310.251H267.062Z" fill="#212121"/>
<path d="M185.5 283.063V255.875L212.688 283.063H185.5Z" fill="#212121"/>
<path d="M212.687 283.063V255.875L239.875 283.063H212.687Z" fill="#212121"/>
<path d="M239.875 283.063V255.875L267.062 283.063H239.875Z" fill="#212121"/>
<path d="M185.5 255.876V228.688L212.688 255.876H185.5Z" fill="#212121"/>
<path d="M212.687 255.876V228.688L239.875 255.876H212.687Z" fill="#212121"/>
<path d="M185.5 228.688V201.5L212.688 228.688H185.5Z" fill="#212121"/>
<rect x="403" y="419" width="217.5" height="217.5" transform="rotate(-90 403 419)" fill="#8B9BC1"/>
<rect x="620.5" y="419" width="217.5" height="217.5" transform="rotate(-90 620.5 419)" fill="#8B9BC1"/>
<path d="M729.25 419V391.813L702.062 419H729.25Z" fill="#212121"/>
<path d="M702.063 419V391.813L674.875 419H702.063Z" fill="#212121"/>
<path d="M674.875 419V391.813L647.688 419H674.875Z" fill="#212121"/>
<path d="M647.688 419V391.813L620.5 419H647.688Z" fill="#212121"/>
<path d="M729.25 391.813V364.626L702.062 391.813H729.25Z" fill="#212121"/>
<path d="M702.063 391.813V364.626L674.875 391.813H702.063Z" fill="#212121"/>
<path d="M674.875 391.813V364.626L647.688 391.813H674.875Z" fill="#212121"/>
<path d="M729.25 364.626V337.439L702.062 364.626H729.25Z" fill="#212121"/>
<path d="M702.063 364.626V337.439L674.875 364.626H702.063Z" fill="#212121"/>
<path d="M729.25 337.438V310.251L702.062 337.438H729.25Z" fill="#212121"/>
<rect x="-32" y="636.501" width="217.5" height="217.5" transform="rotate(-90 -32 636.501)" fill="#8B9BC1"/>
<path d="M-32.0001 527.75C28.0609 527.75 76.75 479.061 76.75 419H-32.0001V527.75Z" fill="#D6F2FF"/>
<path d="M185.5 527.75C125.439 527.75 76.75 479.061 76.75 419H185.5V527.75Z" fill="#36467F"/>
<path d="M-32.0001 527.75C28.0609 527.75 76.75 576.439 76.75 636.5H-32.0001V527.75Z" fill="#D6F2FF"/>
<path d="M185.5 527.75C125.439 527.75 76.75 576.439 76.75 636.5H185.5V527.75Z" fill="#36467F"/>
<rect width="217.5" height="217.5" transform="matrix(0 -1 -1 0 403 636.501)" fill="#8B9BC1"/>
<path d="M403 419C403 447.563 397.374 475.846 386.444 502.234C375.514 528.622 359.493 552.599 339.296 572.796C319.099 592.993 295.122 609.014 268.734 619.944C242.345 630.875 214.063 636.5 185.5 636.5L185.5 419H403Z" fill="#212121"/>
<path d="M294.25 419C294.25 433.281 291.437 447.423 285.972 460.617C280.507 473.811 272.496 485.8 262.398 495.898C252.3 505.996 240.311 514.007 227.117 519.472C213.923 524.937 199.781 527.75 185.5 527.75L185.5 419H294.25Z" fill="#36467F"/>
<rect x="403" y="636.501" width="217.5" height="217.5" transform="rotate(-90 403 636.501)" fill="#8B9BC1"/>
<path d="M403 419C403 447.563 408.626 475.846 419.556 502.234C430.486 528.622 446.507 552.599 466.704 572.796C486.901 592.993 510.878 609.014 537.266 619.944C563.655 630.875 591.937 636.5 620.5 636.5L620.5 419H403Z" fill="#D6F2FF"/>
<rect width="217.5" height="217.5" transform="matrix(0 -1 -1 0 838 636.5)" fill="#212121"/>
<path d="M620.5 636.5V419L838 636.5H620.5Z" fill="#212121"/>
<rect width="217.5" height="217.5" transform="matrix(-1 0 0 1 185.5 636.5)" fill="#8B9BC1"/>
<path d="M185.5 745.25C185.5 805.311 136.811 854 76.7499 854L76.7499 636.5C136.811 636.5 185.5 685.189 185.5 745.25Z" fill="#36467F"/>
<path d="M-32 745.25C-32 805.311 16.6891 854 76.7501 854L76.7501 636.5C16.6891 636.5 -32 685.189 -32 745.25Z" fill="#D6F2FF"/>
<rect width="217.5" height="217.5" transform="matrix(0 -1 -1 0 403 854)" fill="#8B9BC1"/>
<path d="M185.5 854V826.813L212.688 854H185.5Z" fill="#212121"/>
<path d="M212.687 854V826.813L239.875 854H212.687Z" fill="#212121"/>
<path d="M239.875 854V826.813L267.062 854H239.875Z" fill="#212121"/>
<path d="M267.062 854V826.813L294.25 854H267.062Z" fill="#212121"/>
<path d="M294.25 854V826.813L321.438 854H294.25Z" fill="#212121"/>
<path d="M321.437 854V826.813L348.625 854H321.437Z" fill="#212121"/>
<path d="M348.625 854V826.813L375.812 854H348.625Z" fill="#212121"/>
<path d="M375.812 854V826.813L403 854H375.812Z" fill="#212121"/>
<path d="M185.5 826.813V799.626L212.688 826.813H185.5Z" fill="#212121"/>
<path d="M212.687 826.813V799.626L239.875 826.813H212.687Z" fill="#212121"/>
<path d="M239.875 826.813V799.626L267.062 826.813H239.875Z" fill="#212121"/>
<path d="M267.062 826.813V799.626L294.25 826.813H267.062Z" fill="#212121"/>
<path d="M294.25 826.813V799.626L321.438 826.813H294.25Z" fill="#212121"/>
<path d="M321.437 826.813V799.626L348.625 826.813H321.437Z" fill="#212121"/>
<path d="M348.625 826.813V799.626L375.812 826.813H348.625Z" fill="#212121"/>
<path d="M375.812 826.813V799.626L403 826.813H375.812Z" fill="#212121"/>
<path d="M185.5 799.625V772.438L212.688 799.625H185.5Z" fill="#212121"/>
<path d="M212.687 799.625V772.438L239.875 799.625H212.687Z" fill="#212121"/>
<path d="M239.875 799.625V772.438L267.062 799.625H239.875Z" fill="#212121"/>
<path d="M267.062 799.625V772.438L294.25 799.625H267.062Z" fill="#212121"/>
<path d="M294.25 799.625V772.438L321.438 799.625H294.25Z" fill="#212121"/>
<path d="M321.437 799.625V772.438L348.625 799.625H321.437Z" fill="#212121"/>
<path d="M348.625 799.625V772.438L375.812 799.625H348.625Z" fill="#212121"/>
<path d="M375.812 799.625V772.438L403 799.625H375.812Z" fill="#212121"/>
<path d="M185.5 772.438V745.251L212.688 772.438H185.5Z" fill="#212121"/>
<path d="M212.687 772.438V745.251L239.875 772.438H212.687Z" fill="#212121"/>
<path d="M239.875 772.438V745.251L267.062 772.438H239.875Z" fill="#212121"/>
<path d="M267.062 772.438V745.251L294.25 772.438H267.062Z" fill="#212121"/>
<path d="M294.25 772.438V745.251L321.438 772.438H294.25Z" fill="#212121"/>
<path d="M321.437 772.438V745.251L348.625 772.438H321.437Z" fill="#212121"/>
<path d="M348.625 772.438V745.251L375.812 772.438H348.625Z" fill="#212121"/>
<path d="M375.812 772.438V745.251L403 772.438H375.812Z" fill="#212121"/>
<path d="M185.5 745.251V718.063L212.688 745.251H185.5Z" fill="#212121"/>
<path d="M212.687 745.251V718.063L239.875 745.251H212.687Z" fill="#212121"/>
<path d="M239.875 745.251V718.063L267.062 745.251H239.875Z" fill="#212121"/>
<path d="M267.062 745.251V718.063L294.25 745.251H267.062Z" fill="#212121"/>
<path d="M294.25 745.251V718.063L321.438 745.251H294.25Z" fill="#212121"/>
<path d="M321.437 745.251V718.063L348.625 745.251H321.437Z" fill="#212121"/>
<path d="M348.625 745.251V718.063L375.812 745.251H348.625Z" fill="#212121"/>
<path d="M375.812 745.251V718.063L403 745.251H375.812Z" fill="#212121"/>
<path d="M185.5 718.063V690.875L212.688 718.063H185.5Z" fill="#212121"/>
<path d="M212.687 718.063V690.875L239.875 718.063H212.687Z" fill="#212121"/>
<path d="M239.875 718.063V690.875L267.062 718.063H239.875Z" fill="#212121"/>
<path d="M267.062 718.063V690.875L294.25 718.063H267.062Z" fill="#212121"/>
<path d="M294.25 718.063V690.875L321.438 718.063H294.25Z" fill="#212121"/>
<path d="M321.437 718.063V690.875L348.625 718.063H321.437Z" fill="#212121"/>
<path d="M348.625 718.063V690.875L375.812 718.063H348.625Z" fill="#212121"/>
<path d="M375.812 718.063V690.875L403 718.063H375.812Z" fill="#212121"/>
<path d="M185.5 690.876V663.688L212.688 690.876H185.5Z" fill="#212121"/>
<path d="M212.687 690.876V663.688L239.875 690.876H212.687Z" fill="#212121"/>
<path d="M239.875 690.876V663.688L267.062 690.876H239.875Z" fill="#212121"/>
<path d="M267.062 690.876V663.688L294.25 690.876H267.062Z" fill="#212121"/>
<path d="M294.25 690.876V663.688L321.438 690.876H294.25Z" fill="#212121"/>
<path d="M321.437 690.876V663.688L348.625 690.876H321.437Z" fill="#212121"/>
<path d="M348.625 690.876V663.688L375.812 690.876H348.625Z" fill="#212121"/>
<path d="M375.812 690.876V663.688L403 690.876H375.812Z" fill="#212121"/>
<path d="M185.5 663.688V636.5L212.688 663.688H185.5Z" fill="#212121"/>
<path d="M212.687 663.688V636.5L239.875 663.688H212.687Z" fill="#212121"/>
<path d="M239.875 663.688V636.5L267.062 663.688H239.875Z" fill="#212121"/>
<path d="M267.062 663.688V636.5L294.25 663.688H267.062Z" fill="#212121"/>
<path d="M294.25 663.688V636.5L321.438 663.688H294.25Z" fill="#212121"/>
<path d="M321.437 663.688V636.5L348.625 663.688H321.437Z" fill="#212121"/>
<path d="M348.625 663.688V636.5L375.812 663.688H348.625Z" fill="#212121"/>
<path d="M375.812 663.688V636.5L403 663.688H375.812Z" fill="#212121"/>
<rect x="403" y="854" width="217.5" height="217.5" transform="rotate(-90 403 854)" fill="#D6F2FF"/>
<path d="M620.5 854V636.5L403 854H620.5Z" fill="#212121"/>
<rect x="620.502" y="854" width="217.5" height="217.5" transform="rotate(-90 620.502 854)" fill="#212121"/>
<path d="M620.502 854.001C620.502 825.438 626.128 797.155 637.058 770.767C647.988 744.379 664.009 720.402 684.206 700.205C704.403 680.008 728.38 663.987 754.768 653.057C781.157 642.126 809.439 636.5 838.002 636.5L838.002 854.001H620.502Z" fill="#36467F"/>
</svg>
